<svg xmlns="http://www.w3.org/2000/svg" version="1.0" width="138.000000pt" height="131.000000pt" viewBox="0 0 138.000000 131.000000" preserveAspectRatio="xMidYMid meet">

<g transform="translate(0.000000,131.000000) scale(0.100000,-0.100000)" fill="#003b5b" stroke="none">
<path d="M140 1229 c-24 -54 -25 -115 -4 -169 12 -30 32 -51 75 -81 66 -45 79 -73 79 -175 0 -79 10 -88 130 -115 52 -11 112 -32 133 -45 47 -31 49 -40 1 -12 -19 11 -76 31 -127 43 -51 12 -101 26 -112 30 l-20 8 20 -20 c11 -12 49 -30 85 -42 88 -29 127 -54 147 -96 25 -52 4 -66 -31 -20 -15 19 -40 42 -55 50 l-28 14 38 -77 c21 -42 43 -83 49 -89 17 -21 45 -15 85 17 21 17 45 30 54 29 10 0 7 -4 -8 -10 -13 -5 -37 -20 -53 -34 -16 -14 -39 -25 -51 -25 -19 0 -19 -2 7 -15 16 -9 46 -31 68 -50 21 -19 47 -35 58 -35 11 0 37 16 58 35 22 19 52 41 68 50 25 13 26 15 8 15 -12 0 -33 9 -47 20 -14 12 -39 27 -54 35 -16 9 -21 15 -12 15 9 0 33 -13 54 -30 40 -32 68 -38 85 -17 6 6 28 47 49 89 l38 77 -27 -14 c-16 -8 -42 -31 -59 -52 -24 -29 -32 -33 -36 -21 -9 24 22 76 58 98 18 11 60 29 94 41 35 11 73 30 85 41 21 18 21 19 3 12 -11 -3 -61 -17 -112 -29 -51 -12 -109 -32 -129 -44 -27 -16 -34 -18 -24 -6 22 26 59 41 163 65 116 26 127 37 128 125 0 92 16 124 78 165 64 43 90 87 90 155 1 42 -28 135 -42 135 -2 0 -1 -39 1 -87 5 -101 7 -97 -113 -180 -38 -27 -71 -54 -73 -61 -2 -7 17 2 43 19 25 17 48 29 51 27 2 -3 -13 -16 -34 -29 -46 -30 -72 -80 -72 -139 0 -62 -19 -85 -82 -100 -106 -25 -198 -92 -214 -155 -8 -32 -40 -33 -48 -2 -16 64 -108 132 -214 157 -62 14 -82 38 -82 98 0 62 -22 107 -69 138 -23 15 -39 29 -37 32 3 2 26 -10 51 -27 26 -17 45 -26 43 -19 -3 7 -29 30 -59 51 -138 95 -144 104 -129 205 5 36 7 68 5 71 -3 2 -14 -16 -25 -40z" fill="#003b5b"/>
<path d="M333 572 c5 -65 37 -136 66 -152 17 -8 111 -15 111 -7 0 1 -19 40 -43 87 -29 59 -52 92 -76 107 -56 37 -65 32 -58 -35z" fill="#003b5b"/>
<path d="M961 603 c-29 -23 -58 -72 -109 -185 -5 -12 87 -9 109 2 29 16 59 83 66 150 5 54 4 60 -13 60 -10 0 -34 -12 -53 -27z" fill="#003b5b"/>
<path d="M532 378 c-27 -27 -11 -49 38 -52 l28 -2 -25 33 c-29 38 -26 36 -41 21z" fill="#003b5b"/>
<path d="M787 357 l-25 -33 30 2 c42 3 60 31 34 53 -10 9 -19 4 -39 -22z" fill="#003b5b"/>
<path d="M610 268 c0 -6 -7 -19 -15 -28 -11 -12 -12 -24 -6 -48 15 -52 -6 -36 -24 18 -9 28 -20 48 -25 45 -4 -2 -10 -35 -14 -73 -4 -37 -13 -93 -20 -125 l-13 -57 83 0 c45 0 86 5 89 10 4 7 12 7 25 0 10 -5 54 -10 98 -10 l79 0 -12 54 c-7 30 -16 83 -20 118 -10 91 -19 99 -41 39 -21 -59 -32 -66 -26 -17 2 21 -3 44 -13 60 -16 24 -23 26 -81 26 -42 0 -64 -4 -64 -12z m45 -184 c17 -13 18 -16 5 -24 -11 -7 -6 -10 20 -10 26 0 31 3 20 10 -13 8 -12 11 5 24 36 27 46 19 27 -19 -16 -32 -20 -35 -57 -33 -22 2 -40 8 -40 13 -1 6 -6 20 -13 33 -15 27 1 30 33 6z" fill="#003b5b"/>
</g>
</svg>